<svg xmlns="http://www.w3.org/2000/svg" width="65" height="58" viewBox="0 0 65 58" fill="none"><path d="M0 57.98H65L32.5007 0.97998L0 57.98ZM62.1623 55.9153L61.8147 56.5251L61.8946 56.5719H3.10539L3.18537 56.5252L2.83776 55.9153L2.75605 55.9631L32.153 4.40655V4.50049H32.8484V4.40655L62.2441 55.9631L62.1623 55.9153Z" fill="url(#paint0_linear_4124_1472)"></path><path d="M8.86143 52.3964L7.05431 53.4521L7.40191 54.0619L9.20903 53.0062L8.86143 52.3964Z" fill="url(#paint1_linear_4124_1472)"></path><path d="M20.9088 45.3586L19.1017 46.4142L19.4492 47.024L21.2564 45.9684L20.9088 45.3586Z" fill="url(#paint2_linear_4124_1472)"></path><path d="M5.84957 54.1558L4.04248 55.2116L4.3901 55.8214L6.19718 54.7656L5.84957 54.1558Z" fill="url(#paint3_linear_4124_1472)"></path><path d="M11.8732 50.637L10.0662 51.6926L10.4137 52.3024L12.2208 51.2468L11.8732 50.637Z" fill="url(#paint4_linear_4124_1472)"></path><path d="M17.8969 47.118L16.0898 48.1737L16.4374 48.7835L18.2445 47.7278L17.8969 47.118Z" fill="url(#paint5_linear_4124_1472)"></path><path d="M26.9324 41.8396L25.1253 42.8953L25.473 43.5051L27.28 42.4494L26.9324 41.8396Z" fill="url(#paint6_linear_4124_1472)"></path><path d="M23.9206 43.599L22.1135 44.6548L22.4611 45.2646L24.2682 44.2088L23.9206 43.599Z" fill="url(#paint7_linear_4124_1472)"></path><path d="M14.885 48.8774L13.078 49.9332L13.4256 50.543L15.2327 49.4872L14.885 48.8774Z" fill="url(#paint8_linear_4124_1472)"></path><path d="M29.9443 40.0802L28.1371 41.1357L28.4847 41.7456L30.2919 40.69L29.9443 40.0802Z" fill="url(#paint9_linear_4124_1472)"></path><path d="M47.1033 47.1177L46.7557 47.7275L48.5628 48.7832L48.9104 48.1734L47.1033 47.1177Z" fill="url(#paint10_linear_4124_1472)"></path><path d="M38.0679 41.8391L37.7203 42.4489L39.5274 43.5046L39.875 42.8948L38.0679 41.8391Z" fill="url(#paint11_linear_4124_1472)"></path><path d="M50.1151 48.8772L49.7675 49.487L51.5746 50.5427L51.9222 49.9329L50.1151 48.8772Z" fill="url(#paint12_linear_4124_1472)"></path><path d="M41.0797 43.5986L40.7321 44.2084L42.5392 45.2642L42.8868 44.6544L41.0797 43.5986Z" fill="url(#paint13_linear_4124_1472)"></path><path d="M56.1387 52.3963L55.7911 53.006L57.5981 54.0618L57.9458 53.452L56.1387 52.3963Z" fill="url(#paint14_linear_4124_1472)"></path><path d="M59.1505 54.1558L58.8029 54.7656L60.6099 55.8213L60.9576 55.2115L59.1505 54.1558Z" fill="url(#paint15_linear_4124_1472)"></path><path d="M53.1269 50.6367L52.7793 51.2466L54.5864 52.3023L54.934 51.6925L53.1269 50.6367Z" fill="url(#paint16_linear_4124_1472)"></path><path d="M35.0561 40.0796L34.7085 40.6894L36.5156 41.7451L36.8632 41.1353L35.0561 40.0796Z" fill="url(#paint17_linear_4124_1472)"></path><path d="M44.0915 45.3582L43.7439 45.968L45.551 47.0237L45.8986 46.4139L44.0915 45.3582Z" fill="url(#paint18_linear_4124_1472)"></path><path d="M32.8484 23.51H32.153V25.6222H32.8484V23.51Z" fill="url(#paint19_linear_4124_1472)"></path><path d="M32.8484 19.9897H32.153V22.1019H32.8484V19.9897Z" fill="url(#paint20_linear_4124_1472)"></path><path d="M32.8484 27.0303H32.153V29.1425H32.8484V27.0303Z" fill="url(#paint21_linear_4124_1472)"></path><path d="M32.8484 30.5506H32.153V32.6628H32.8484V30.5506Z" fill="url(#paint22_linear_4124_1472)"></path><path d="M32.8484 34.0709H32.153V36.1831H32.8484V34.0709Z" fill="url(#paint23_linear_4124_1472)"></path><path d="M32.8484 9.4289H32.153V11.541H32.8484V9.4289Z" fill="url(#paint24_linear_4124_1472)"></path><path d="M32.8484 5.90861H32.153V8.02078H32.8484V5.90861Z" fill="url(#paint25_linear_4124_1472)"></path><path d="M32.8484 16.4694H32.153V18.5816H32.8484V16.4694Z" fill="url(#paint26_linear_4124_1472)"></path><path d="M32.8487 37.5909H32.1532V38.7899L31.149 39.3764L31.4967 39.9861L32.501 39.3996L33.5038 39.9854L33.8516 39.3757L32.8487 38.7899V37.5909Z" fill="url(#paint27_linear_4124_1472)"></path><path d="M32.8484 12.9491H32.153V15.0613H32.8484V12.9491Z" fill="url(#paint28_linear_4124_1472)"></path><defs><linearGradient id="paint0_linear_4124_1472" x1="-4.53495e-07" y1="57.9724" x2="49.9852" y2="77.748" gradientUnits="userSpaceOnUse"><stop stop-color="#9D48FF"></stop><stop offset="0.488595" stop-color="#007BFF"></stop><stop offset="1" stop-color="#05EAFF"></stop></linearGradient><linearGradient id="paint1_linear_4124_1472" x1="-4.53495e-07" y1="57.9724" x2="49.9852" y2="77.748" gradientUnits="userSpaceOnUse"><stop stop-color="#9D48FF"></stop><stop offset="0.488595" stop-color="#007BFF"></stop><stop offset="1" stop-color="#05EAFF"></stop></linearGradient><linearGradient id="paint2_linear_4124_1472" x1="-4.53495e-07" y1="57.9724" x2="49.9852" y2="77.748" gradientUnits="userSpaceOnUse"><stop stop-color="#9D48FF"></stop><stop offset="0.488595" stop-color="#007BFF"></stop><stop offset="1" stop-color="#05EAFF"></stop></linearGradient><linearGradient id="paint3_linear_4124_1472" x1="-4.53495e-07" y1="57.9724" x2="49.9852" y2="77.748" gradientUnits="userSpaceOnUse"><stop stop-color="#9D48FF"></stop><stop offset="0.488595" stop-color="#007BFF"></stop><stop offset="1" stop-color="#05EAFF"></stop></linearGradient><linearGradient id="paint4_linear_4124_1472" x1="-4.53495e-07" y1="57.9724" x2="49.9852" y2="77.748" gradientUnits="userSpaceOnUse"><stop stop-color="#9D48FF"></stop><stop offset="0.488595" stop-color="#007BFF"></stop><stop offset="1" stop-color="#05EAFF"></stop></linearGradient><linearGradient id="paint5_linear_4124_1472" x1="-4.53495e-07" y1="57.9724" x2="49.9852" y2="77.748" gradientUnits="userSpaceOnUse"><stop stop-color="#9D48FF"></stop><stop offset="0.488595" stop-color="#007BFF"></stop><stop offset="1" stop-color="#05EAFF"></stop></linearGradient><linearGradient id="paint6_linear_4124_1472" x1="-4.53495e-07" y1="57.9724" x2="49.9852" y2="77.748" gradientUnits="userSpaceOnUse"><stop stop-color="#9D48FF"></stop><stop offset="0.488595" stop-color="#007BFF"></stop><stop offset="1" stop-color="#05EAFF"></stop></linearGradient><linearGradient id="paint7_linear_4124_1472" x1="-4.53495e-07" y1="57.9724" x2="49.9852" y2="77.748" gradientUnits="userSpaceOnUse"><stop stop-color="#9D48FF"></stop><stop offset="0.488595" stop-color="#007BFF"></stop><stop offset="1" stop-color="#05EAFF"></stop></linearGradient><linearGradient id="paint8_linear_4124_1472" x1="-4.53495e-07" y1="57.9724" x2="49.9852" y2="77.748" gradientUnits="userSpaceOnUse"><stop stop-color="#9D48FF"></stop><stop offset="0.488595" stop-color="#007BFF"></stop><stop offset="1" stop-color="#05EAFF"></stop></linearGradient><linearGradient id="paint9_linear_4124_1472" x1="-4.53495e-07" y1="57.9724" x2="49.9852" y2="77.748" gradientUnits="userSpaceOnUse"><stop stop-color="#9D48FF"></stop><stop offset="0.488595" stop-color="#007BFF"></stop><stop offset="1" stop-color="#05EAFF"></stop></linearGradient><linearGradient id="paint10_linear_4124_1472" x1="-4.53495e-07" y1="57.9724" x2="49.9852" y2="77.748" gradientUnits="userSpaceOnUse"><stop stop-color="#9D48FF"></stop><stop offset="0.488595" stop-color="#007BFF"></stop><stop offset="1" stop-color="#05EAFF"></stop></linearGradient><linearGradient id="paint11_linear_4124_1472" x1="-4.53495e-07" y1="57.9724" x2="49.9852" y2="77.748" gradientUnits="userSpaceOnUse"><stop stop-color="#9D48FF"></stop><stop offset="0.488595" stop-color="#007BFF"></stop><stop offset="1" stop-color="#05EAFF"></stop></linearGradient><linearGradient id="paint12_linear_4124_1472" x1="-4.53495e-07" y1="57.9724" x2="49.9852" y2="77.748" gradientUnits="userSpaceOnUse"><stop stop-color="#9D48FF"></stop><stop offset="0.488595" stop-color="#007BFF"></stop><stop offset="1" stop-color="#05EAFF"></stop></linearGradient><linearGradient id="paint13_linear_4124_1472" x1="-4.53495e-07" y1="57.9724" x2="49.9852" y2="77.748" gradientUnits="userSpaceOnUse"><stop stop-color="#9D48FF"></stop><stop offset="0.488595" stop-color="#007BFF"></stop><stop offset="1" stop-color="#05EAFF"></stop></linearGradient><linearGradient id="paint14_linear_4124_1472" x1="-4.53495e-07" y1="57.9724" x2="49.9852" y2="77.748" gradientUnits="userSpaceOnUse"><stop stop-color="#9D48FF"></stop><stop offset="0.488595" stop-color="#007BFF"></stop><stop offset="1" stop-color="#05EAFF"></stop></linearGradient><linearGradient id="paint15_linear_4124_1472" x1="-4.53495e-07" y1="57.9724" x2="49.9852" y2="77.748" gradientUnits="userSpaceOnUse"><stop stop-color="#9D48FF"></stop><stop offset="0.488595" stop-color="#007BFF"></stop><stop offset="1" stop-color="#05EAFF"></stop></linearGradient><linearGradient id="paint16_linear_4124_1472" x1="-4.53495e-07" y1="57.9724" x2="49.9852" y2="77.748" gradientUnits="userSpaceOnUse"><stop stop-color="#9D48FF"></stop><stop offset="0.488595" stop-color="#007BFF"></stop><stop offset="1" stop-color="#05EAFF"></stop></linearGradient><linearGradient id="paint17_linear_4124_1472" x1="-4.53495e-07" y1="57.9724" x2="49.9852" y2="77.748" gradientUnits="userSpaceOnUse"><stop stop-color="#9D48FF"></stop><stop offset="0.488595" stop-color="#007BFF"></stop><stop offset="1" stop-color="#05EAFF"></stop></linearGradient><linearGradient id="paint18_linear_4124_1472" x1="-4.53495e-07" y1="57.9724" x2="49.9852" y2="77.748" gradientUnits="userSpaceOnUse"><stop stop-color="#9D48FF"></stop><stop offset="0.488595" stop-color="#007BFF"></stop><stop offset="1" stop-color="#05EAFF"></stop></linearGradient><linearGradient id="paint19_linear_4124_1472" x1="-4.53495e-07" y1="57.9724" x2="49.9852" y2="77.748" gradientUnits="userSpaceOnUse"><stop stop-color="#9D48FF"></stop><stop offset="0.488595" stop-color="#007BFF"></stop><stop offset="1" stop-color="#05EAFF"></stop></linearGradient><linearGradient id="paint20_linear_4124_1472" x1="-4.53495e-07" y1="57.9724" x2="49.9852" y2="77.748" gradientUnits="userSpaceOnUse"><stop stop-color="#9D48FF"></stop><stop offset="0.488595" stop-color="#007BFF"></stop><stop offset="1" stop-color="#05EAFF"></stop></linearGradient><linearGradient id="paint21_linear_4124_1472" x1="-4.53495e-07" y1="57.9724" x2="49.9852" y2="77.748" gradientUnits="userSpaceOnUse"><stop stop-color="#9D48FF"></stop><stop offset="0.488595" stop-color="#007BFF"></stop><stop offset="1" stop-color="#05EAFF"></stop></linearGradient><linearGradient id="paint22_linear_4124_1472" x1="-4.53495e-07" y1="57.9724" x2="49.9852" y2="77.748" gradientUnits="userSpaceOnUse"><stop stop-color="#9D48FF"></stop><stop offset="0.488595" stop-color="#007BFF"></stop><stop offset="1" stop-color="#05EAFF"></stop></linearGradient><linearGradient id="paint23_linear_4124_1472" x1="-4.53495e-07" y1="57.9724" x2="49.9852" y2="77.748" gradientUnits="userSpaceOnUse"><stop stop-color="#9D48FF"></stop><stop offset="0.488595" stop-color="#007BFF"></stop><stop offset="1" stop-color="#05EAFF"></stop></linearGradient><linearGradient id="paint24_linear_4124_1472" x1="-4.53495e-07" y1="57.9724" x2="49.9852" y2="77.748" gradientUnits="userSpaceOnUse"><stop stop-color="#9D48FF"></stop><stop offset="0.488595" stop-color="#007BFF"></stop><stop offset="1" stop-color="#05EAFF"></stop></linearGradient><linearGradient id="paint25_linear_4124_1472" x1="-4.53495e-07" y1="57.9724" x2="49.9852" y2="77.748" gradientUnits="userSpaceOnUse"><stop stop-color="#9D48FF"></stop><stop offset="0.488595" stop-color="#007BFF"></stop><stop offset="1" stop-color="#05EAFF"></stop></linearGradient><linearGradient id="paint26_linear_4124_1472" x1="-4.53495e-07" y1="57.9724" x2="49.9852" y2="77.748" gradientUnits="userSpaceOnUse"><stop stop-color="#9D48FF"></stop><stop offset="0.488595" stop-color="#007BFF"></stop><stop offset="1" stop-color="#05EAFF"></stop></linearGradient><linearGradient id="paint27_linear_4124_1472" x1="-4.53495e-07" y1="57.9724" x2="49.9852" y2="77.748" gradientUnits="userSpaceOnUse"><stop stop-color="#9D48FF"></stop><stop offset="0.488595" stop-color="#007BFF"></stop><stop offset="1" stop-color="#05EAFF"></stop></linearGradient><linearGradient id="paint28_linear_4124_1472" x1="-4.53495e-07" y1="57.9724" x2="49.9852" y2="77.748" gradientUnits="userSpaceOnUse"><stop stop-color="#9D48FF"></stop><stop offset="0.488595" stop-color="#007BFF"></stop><stop offset="1" stop-color="#05EAFF"></stop></linearGradient></defs></svg>