<svg xmlns="http://www.w3.org/2000/svg" width="65" height="75" viewBox="0 0 65 75" fill="none"><path d="M0 18.7521L0.00813222 56.2447L32.504 75L64.9988 56.2446L65 18.7521L32.504 0L0 18.7521ZM62.1705 54.0092L61.7639 54.7128L63.0831 55.4737L33.3172 72.654V37.8349L63.3735 20.4977L63.3724 54.7025L62.1705 54.0092ZM2.83787 54.0092L1.6342 54.7035L1.6268 20.493L31.6908 37.8349V72.6541L1.92455 55.4742L3.24452 54.7128L2.83787 54.0092ZM32.504 36.4277L2.55698 19.1532L32.0974 2.11096V3.37564H32.9106V2.11105L62.4475 19.1556L32.504 36.4277Z" fill="url(#paint0_linear_4124_1450)"></path><path d="M32.9106 29.3745H32.0974V31.8119H32.9106V29.3745Z" fill="url(#paint1_linear_4124_1450)"></path><path d="M32.9106 25.3121H32.0974V27.7495H32.9106V25.3121Z" fill="url(#paint2_linear_4124_1450)"></path><path d="M32.9106 33.4368H32.0974V35.8742H32.9106V33.4368Z" fill="url(#paint3_linear_4124_1450)"></path><path d="M32.9106 13.1252H32.0974V15.5626H32.9106V13.1252Z" fill="url(#paint4_linear_4124_1450)"></path><path d="M32.9106 5.00056H32.0974V7.43795H32.9106V5.00056Z" fill="url(#paint5_linear_4124_1450)"></path><path d="M32.9106 21.2498H32.0974V23.6872H32.9106V21.2498Z" fill="url(#paint6_linear_4124_1450)"></path><path d="M32.9106 9.06288H32.0974V11.5002H32.9106V9.06288Z" fill="url(#paint7_linear_4124_1450)"></path><path d="M32.9106 17.1875H32.0974V19.6249H32.9106V17.1875Z" fill="url(#paint8_linear_4124_1450)"></path><path d="M23.9655 41.8221L21.8527 43.0408L22.2594 43.7444L24.3721 42.5257L23.9655 41.8221Z" fill="url(#paint9_linear_4124_1450)"></path><path d="M16.923 45.8845L14.8102 47.1032L15.2168 47.8068L17.3296 46.5881L16.923 45.8845Z" fill="url(#paint10_linear_4124_1450)"></path><path d="M27.4867 39.7909L25.374 41.0097L25.7806 41.7133L27.8933 40.4944L27.4867 39.7909Z" fill="url(#paint11_linear_4124_1450)"></path><path d="M6.35917 51.978L4.2464 53.1967L4.653 53.9003L6.76576 52.6816L6.35917 51.978Z" fill="url(#paint12_linear_4124_1450)"></path><path d="M31.008 37.7597L28.8952 38.9784L29.3019 39.682L31.4146 38.4634L31.008 37.7597Z" fill="url(#paint13_linear_4124_1450)"></path><path d="M9.88037 49.9468L7.76768 51.1656L8.17432 51.8692L10.287 50.6504L9.88037 49.9468Z" fill="url(#paint14_linear_4124_1450)"></path><path d="M13.4016 47.9156L11.289 49.1344L11.6956 49.838L13.8083 48.6191L13.4016 47.9156Z" fill="url(#paint15_linear_4124_1450)"></path><path d="M20.4442 43.8532L18.3315 45.072L18.7381 45.7756L20.8508 44.5568L20.4442 43.8532Z" fill="url(#paint16_linear_4124_1450)"></path><path d="M48.0854 45.8845L47.6788 46.5881L49.7916 47.8068L50.1982 47.1032L48.0854 45.8845Z" fill="url(#paint17_linear_4124_1450)"></path><path d="M44.5641 43.8534L44.1575 44.557L46.2703 45.7757L46.6769 45.0721L44.5641 43.8534Z" fill="url(#paint18_linear_4124_1450)"></path><path d="M41.0429 41.8222L40.6363 42.5258L42.749 43.7445L43.1556 43.0409L41.0429 41.8222Z" fill="url(#paint19_linear_4124_1450)"></path><path d="M37.5216 39.791L37.115 40.4946L39.2278 41.7133L39.6344 41.0097L37.5216 39.791Z" fill="url(#paint20_linear_4124_1450)"></path><path d="M55.1279 49.9469L54.7213 50.6505L56.8341 51.8692L57.2407 51.1656L55.1279 49.9469Z" fill="url(#paint21_linear_4124_1450)"></path><path d="M51.6067 47.9157L51.2001 48.6193L53.3129 49.838L53.7195 49.1344L51.6067 47.9157Z" fill="url(#paint22_linear_4124_1450)"></path><path d="M58.6492 51.978L58.2426 52.6816L60.3554 53.9003L60.762 53.1967L58.6492 51.978Z" fill="url(#paint23_linear_4124_1450)"></path><path d="M34.0003 37.7599L33.5937 38.4635L35.7065 39.6822L36.1131 38.9786L34.0003 37.7599Z" fill="url(#paint24_linear_4124_1450)"></path><defs><linearGradient id="paint0_linear_4124_1450" x1="-4.53495e-07" y1="74.99" x2="53.0159" y2="90.9307" gradientUnits="userSpaceOnUse"><stop stop-color="#9D48FF"></stop><stop offset="0.488595" stop-color="#007BFF"></stop><stop offset="1" stop-color="#05EAFF"></stop></linearGradient><linearGradient id="paint1_linear_4124_1450" x1="-4.53495e-07" y1="74.99" x2="53.0159" y2="90.9307" gradientUnits="userSpaceOnUse"><stop stop-color="#9D48FF"></stop><stop offset="0.488595" stop-color="#007BFF"></stop><stop offset="1" stop-color="#05EAFF"></stop></linearGradient><linearGradient id="paint2_linear_4124_1450" x1="-4.53495e-07" y1="74.99" x2="53.0159" y2="90.9307" gradientUnits="userSpaceOnUse"><stop stop-color="#9D48FF"></stop><stop offset="0.488595" stop-color="#007BFF"></stop><stop offset="1" stop-color="#05EAFF"></stop></linearGradient><linearGradient id="paint3_linear_4124_1450" x1="-4.53495e-07" y1="74.99" x2="53.0159" y2="90.9307" gradientUnits="userSpaceOnUse"><stop stop-color="#9D48FF"></stop><stop offset="0.488595" stop-color="#007BFF"></stop><stop offset="1" stop-color="#05EAFF"></stop></linearGradient><linearGradient id="paint4_linear_4124_1450" x1="-4.53495e-07" y1="74.99" x2="53.0159" y2="90.9307" gradientUnits="userSpaceOnUse"><stop stop-color="#9D48FF"></stop><stop offset="0.488595" stop-color="#007BFF"></stop><stop offset="1" stop-color="#05EAFF"></stop></linearGradient><linearGradient id="paint5_linear_4124_1450" x1="-4.53495e-07" y1="74.99" x2="53.0159" y2="90.9307" gradientUnits="userSpaceOnUse"><stop stop-color="#9D48FF"></stop><stop offset="0.488595" stop-color="#007BFF"></stop><stop offset="1" stop-color="#05EAFF"></stop></linearGradient><linearGradient id="paint6_linear_4124_1450" x1="-4.53495e-07" y1="74.99" x2="53.0159" y2="90.9307" gradientUnits="userSpaceOnUse"><stop stop-color="#9D48FF"></stop><stop offset="0.488595" stop-color="#007BFF"></stop><stop offset="1" stop-color="#05EAFF"></stop></linearGradient><linearGradient id="paint7_linear_4124_1450" x1="-4.53495e-07" y1="74.99" x2="53.0159" y2="90.9307" gradientUnits="userSpaceOnUse"><stop stop-color="#9D48FF"></stop><stop offset="0.488595" stop-color="#007BFF"></stop><stop offset="1" stop-color="#05EAFF"></stop></linearGradient><linearGradient id="paint8_linear_4124_1450" x1="-4.53495e-07" y1="74.99" x2="53.0159" y2="90.9307" gradientUnits="userSpaceOnUse"><stop stop-color="#9D48FF"></stop><stop offset="0.488595" stop-color="#007BFF"></stop><stop offset="1" stop-color="#05EAFF"></stop></linearGradient><linearGradient id="paint9_linear_4124_1450" x1="-4.53495e-07" y1="74.99" x2="53.0159" y2="90.9307" gradientUnits="userSpaceOnUse"><stop stop-color="#9D48FF"></stop><stop offset="0.488595" stop-color="#007BFF"></stop><stop offset="1" stop-color="#05EAFF"></stop></linearGradient><linearGradient id="paint10_linear_4124_1450" x1="-4.53495e-07" y1="74.99" x2="53.0159" y2="90.9307" gradientUnits="userSpaceOnUse"><stop stop-color="#9D48FF"></stop><stop offset="0.488595" stop-color="#007BFF"></stop><stop offset="1" stop-color="#05EAFF"></stop></linearGradient><linearGradient id="paint11_linear_4124_1450" x1="-4.53495e-07" y1="74.99" x2="53.0159" y2="90.9307" gradientUnits="userSpaceOnUse"><stop stop-color="#9D48FF"></stop><stop offset="0.488595" stop-color="#007BFF"></stop><stop offset="1" stop-color="#05EAFF"></stop></linearGradient><linearGradient id="paint12_linear_4124_1450" x1="-4.53495e-07" y1="74.99" x2="53.0159" y2="90.9307" gradientUnits="userSpaceOnUse"><stop stop-color="#9D48FF"></stop><stop offset="0.488595" stop-color="#007BFF"></stop><stop offset="1" stop-color="#05EAFF"></stop></linearGradient><linearGradient id="paint13_linear_4124_1450" x1="-4.53495e-07" y1="74.99" x2="53.0159" y2="90.9307" gradientUnits="userSpaceOnUse"><stop stop-color="#9D48FF"></stop><stop offset="0.488595" stop-color="#007BFF"></stop><stop offset="1" stop-color="#05EAFF"></stop></linearGradient><linearGradient id="paint14_linear_4124_1450" x1="-4.53495e-07" y1="74.99" x2="53.0159" y2="90.9307" gradientUnits="userSpaceOnUse"><stop stop-color="#9D48FF"></stop><stop offset="0.488595" stop-color="#007BFF"></stop><stop offset="1" stop-color="#05EAFF"></stop></linearGradient><linearGradient id="paint15_linear_4124_1450" x1="-4.53495e-07" y1="74.99" x2="53.0159" y2="90.9307" gradientUnits="userSpaceOnUse"><stop stop-color="#9D48FF"></stop><stop offset="0.488595" stop-color="#007BFF"></stop><stop offset="1" stop-color="#05EAFF"></stop></linearGradient><linearGradient id="paint16_linear_4124_1450" x1="-4.53495e-07" y1="74.99" x2="53.0159" y2="90.9307" gradientUnits="userSpaceOnUse"><stop stop-color="#9D48FF"></stop><stop offset="0.488595" stop-color="#007BFF"></stop><stop offset="1" stop-color="#05EAFF"></stop></linearGradient><linearGradient id="paint17_linear_4124_1450" x1="-4.53495e-07" y1="74.99" x2="53.0159" y2="90.9307" gradientUnits="userSpaceOnUse"><stop stop-color="#9D48FF"></stop><stop offset="0.488595" stop-color="#007BFF"></stop><stop offset="1" stop-color="#05EAFF"></stop></linearGradient><linearGradient id="paint18_linear_4124_1450" x1="-4.53495e-07" y1="74.99" x2="53.0159" y2="90.9307" gradientUnits="userSpaceOnUse"><stop stop-color="#9D48FF"></stop><stop offset="0.488595" stop-color="#007BFF"></stop><stop offset="1" stop-color="#05EAFF"></stop></linearGradient><linearGradient id="paint19_linear_4124_1450" x1="-4.53495e-07" y1="74.99" x2="53.0159" y2="90.9307" gradientUnits="userSpaceOnUse"><stop stop-color="#9D48FF"></stop><stop offset="0.488595" stop-color="#007BFF"></stop><stop offset="1" stop-color="#05EAFF"></stop></linearGradient><linearGradient id="paint20_linear_4124_1450" x1="-4.53495e-07" y1="74.99" x2="53.0159" y2="90.9307" gradientUnits="userSpaceOnUse"><stop stop-color="#9D48FF"></stop><stop offset="0.488595" stop-color="#007BFF"></stop><stop offset="1" stop-color="#05EAFF"></stop></linearGradient><linearGradient id="paint21_linear_4124_1450" x1="-4.53495e-07" y1="74.99" x2="53.0159" y2="90.9307" gradientUnits="userSpaceOnUse"><stop stop-color="#9D48FF"></stop><stop offset="0.488595" stop-color="#007BFF"></stop><stop offset="1" stop-color="#05EAFF"></stop></linearGradient><linearGradient id="paint22_linear_4124_1450" x1="-4.53495e-07" y1="74.99" x2="53.0159" y2="90.9307" gradientUnits="userSpaceOnUse"><stop stop-color="#9D48FF"></stop><stop offset="0.488595" stop-color="#007BFF"></stop><stop offset="1" stop-color="#05EAFF"></stop></linearGradient><linearGradient id="paint23_linear_4124_1450" x1="-4.53495e-07" y1="74.99" x2="53.0159" y2="90.9307" gradientUnits="userSpaceOnUse"><stop stop-color="#9D48FF"></stop><stop offset="0.488595" stop-color="#007BFF"></stop><stop offset="1" stop-color="#05EAFF"></stop></linearGradient><linearGradient id="paint24_linear_4124_1450" x1="-4.53495e-07" y1="74.99" x2="53.0159" y2="90.9307" gradientUnits="userSpaceOnUse"><stop stop-color="#9D48FF"></stop><stop offset="0.488595" stop-color="#007BFF"></stop><stop offset="1" stop-color="#05EAFF"></stop></linearGradient></defs></svg>