<svg xmlns="http://www.w3.org/2000/svg" width="65" height="65" viewBox="0 0 65 65" fill="none"><path d="M32.5 0.0666504C26.0721 0.0666504 19.7886 1.96766 14.444 5.52928C9.09939 9.09091 4.93378 14.1532 2.47393 20.0759C0.0140818 25.9987 -0.629527 32.5159 0.624493 38.8035C1.87851 45.0911 4.97384 50.8666 9.51905 55.3997C14.0643 59.9328 19.8552 63.0198 26.1596 64.2705C32.464 65.5212 38.9986 64.8793 44.9372 62.426C50.8758 59.9727 55.9517 55.8182 59.5228 50.4879C63.0939 45.1575 65 38.8907 65 32.48C64.9999 23.8835 61.5758 15.6391 55.4809 9.56043C49.386 3.48178 41.1195 0.06677 32.5 0.0666504ZM63.5232 30.5786L63.2695 30.7782C63.3732 30.9095 63.4684 31.0474 63.5543 31.191C63.5719 31.619 63.587 32.0477 63.587 32.48C63.5704 32.98 63.3915 33.4618 63.0773 33.8518C62.0762 34.9969 60.8131 35.8846 59.3951 36.4398C55.8151 37.9306 52.0565 38.9524 48.2132 39.4797C46.1128 39.8167 43.8506 40.0845 41.4764 40.2806C41.4786 40.2486 41.4817 40.2178 41.484 40.1857L40.7792 40.1368C40.7744 40.2059 40.7677 40.2724 40.7628 40.3413C38.1303 40.5398 35.3597 40.646 32.5 40.6459C29.7696 40.6463 27.12 40.5493 24.5943 40.3676C24.412 37.8468 24.3122 35.2058 24.3122 32.48C24.3119 29.6267 24.4204 26.8647 24.6197 24.2378C24.6436 24.2361 24.6665 24.2338 24.6905 24.2321L24.6573 23.7659C24.9768 19.2003 25.7247 14.6747 26.8911 10.2484C27.4701 7.92639 28.3922 5.70323 29.6271 3.65185C30.0252 3.01335 30.5319 2.44901 31.1245 1.98422C31.5157 1.67067 31.9984 1.49229 32.5 1.47593C32.9309 1.47593 33.358 1.49102 33.7846 1.50834C33.8964 1.57265 34.0048 1.64276 34.1093 1.71839L34.2514 1.52778C41.8515 1.9534 49.0306 5.14668 54.4263 10.5017C59.8221 15.8567 63.0591 23.0009 63.5232 30.5786ZM10.5183 10.5569C15.5912 5.48572 22.273 2.32969 29.421 1.62847C28.5207 2.6546 27.7869 3.81487 27.2461 5.0672C25.6966 8.75356 24.6345 12.6253 24.0865 16.5849C23.7314 18.787 23.4513 21.1556 23.2506 23.6421C23.008 23.6625 22.7598 23.6793 22.5197 23.7014L22.5845 24.4031C22.7847 24.3847 22.9921 24.3709 23.1941 24.3536C23.0028 26.9501 22.8993 29.6716 22.8992 32.48C22.8996 35.1618 22.9934 37.7646 23.1681 40.2546C18.7911 39.9213 14.4535 39.1914 10.2091 38.074C7.88088 37.4965 5.65175 36.5769 3.59485 35.3452C2.95465 34.9482 2.38881 34.4428 1.92276 33.8518C1.60837 33.4617 1.4295 32.9803 1.41306 32.48C1.41306 32.0503 1.42819 31.6243 1.44556 31.1988C1.51004 31.0873 1.58034 30.9792 1.65617 30.875L1.46505 30.7333C1.88489 23.1245 5.10913 15.9389 10.5183 10.5569ZM1.56601 35.5507C2.59489 36.4487 3.75827 37.1806 5.01397 37.7199C8.7102 39.2652 12.5923 40.3245 16.5625 40.8711C18.6633 41.208 20.9174 41.4759 23.2781 41.674C23.614 46.2058 24.3679 50.6972 25.5303 55.0911C26.1475 57.5548 27.1311 59.9124 28.4485 62.0855C28.7392 62.5272 29.0662 62.9441 29.426 63.3318C22.2792 62.6236 15.5988 59.4692 10.52 54.4048C5.44121 49.3404 2.27732 42.6783 1.56601 35.5507ZM54.4818 54.4031C49.1228 59.759 41.9796 62.9676 34.4065 63.4204L34.2064 63.1673C34.0746 63.2708 33.9364 63.3657 33.7924 63.4515C33.3633 63.469 32.9335 63.4841 32.5 63.4841C31.9984 63.4677 31.5157 63.2893 31.1245 62.9757C29.9764 61.9772 29.0863 60.7176 28.5296 59.3034C27.0348 55.7329 26.0103 51.9843 25.4816 48.1512C25.1605 46.1607 24.9028 44.0234 24.7087 41.7846C27.2053 41.959 29.8115 42.0551 32.5 42.0552C35.3161 42.0548 38.0456 41.9527 40.6487 41.7621C40.6352 41.9193 40.6248 42.0812 40.6106 42.2374L41.3142 42.301C41.332 42.1054 41.3453 41.9028 41.362 41.7055C46.0264 41.3796 50.6499 40.6181 55.1717 39.4311C57.642 38.8156 60.0059 37.8345 62.1848 36.5206C62.6277 36.2307 63.0456 35.9047 63.4344 35.5458C62.7323 42.6766 59.5677 49.3425 54.4818 54.4031Z" fill="url(#paint0_linear_4124_1461)"></path><path d="M17.6915 24.9844L17.5879 24.2874C16.8706 24.3934 16.1696 24.5067 15.4851 24.6274L15.608 25.3213C16.2854 25.2019 16.9799 25.0896 17.6915 24.9844Z" fill="url(#paint1_linear_4124_1461)"></path><path d="M21.183 24.5421L21.1078 23.8415C20.3905 23.918 19.6859 24.0014 18.9939 24.0919L19.0856 24.7905C19.7716 24.701 20.4707 24.6182 21.183 24.5421Z" fill="url(#paint2_linear_4124_1461)"></path><path d="M45.8736 24.0747C45.1818 23.9854 44.477 23.903 43.7593 23.8274L43.6852 24.5281C44.3971 24.6031 45.0964 24.6848 45.7829 24.7735L45.8736 24.0747Z" fill="url(#paint3_linear_4124_1461)"></path><path d="M4.27994 28.7914L3.93785 28.1748C3.29669 28.5208 2.68961 28.9263 2.12467 29.3858L2.57715 29.927C3.1078 29.4961 3.67791 29.1158 4.27994 28.7914Z" fill="url(#paint4_linear_4124_1461)"></path><path d="M14.2257 25.5792L14.0885 24.888C13.3714 25.0295 12.6765 25.179 12.0036 25.3365L12.165 26.0225C12.8288 25.8672 13.5157 25.7194 14.2257 25.5792Z" fill="url(#paint5_linear_4124_1461)"></path><path d="M7.4564 27.3887L7.21608 26.7261C6.50373 26.9831 5.8401 27.2514 5.22519 27.5311L5.51859 28.172C6.11259 27.9016 6.75852 27.6405 7.4564 27.3887Z" fill="url(#paint6_linear_4124_1461)"></path><path d="M10.8024 26.3603L10.6225 25.6789C9.90672 25.8669 9.22214 26.0639 8.56875 26.27L8.78186 26.9418C9.42259 26.7397 10.0961 26.5458 10.8024 26.3603Z" fill="url(#paint7_linear_4124_1461)"></path><path d="M29.598 23.2934L29.6159 23.9978C30.3141 23.9803 31.0186 23.9691 31.7294 23.9643L31.7246 23.2596C31.0097 23.2644 30.3008 23.2756 29.598 23.2934Z" fill="url(#paint8_linear_4124_1461)"></path><path d="M28.1808 23.338C27.4647 23.365 26.7564 23.3986 26.0559 23.4388L26.0963 24.1423C26.792 24.1024 27.4957 24.0691 28.2075 24.0421L28.1808 23.338Z" fill="url(#paint9_linear_4124_1461)"></path><path d="M49.3832 24.6043C48.6988 24.485 47.9977 24.3729 47.2798 24.2679L47.1774 24.9651C47.8886 25.069 48.5833 25.1801 49.2615 25.2984L49.3832 24.6043Z" fill="url(#paint10_linear_4124_1461)"></path><path d="M33.1383 23.9634C33.8487 23.9674 34.5532 23.9777 35.2516 23.9946L35.2686 23.2901C34.566 23.2733 33.8572 23.2628 33.1422 23.2588L33.1383 23.9634Z" fill="url(#paint11_linear_4124_1461)"></path><path d="M52.866 25.3061C52.1931 25.1504 51.4978 25.0024 50.7802 24.8622L50.6445 25.5537C51.3539 25.6923 52.0412 25.8386 52.7062 25.9925L52.866 25.3061Z" fill="url(#paint12_linear_4124_1461)"></path><path d="M56.3032 26.2298C55.6495 26.026 54.9644 25.8311 54.2479 25.645L54.0698 26.3269C54.7755 26.5102 55.4497 26.702 56.0924 26.9024L56.3032 26.2298Z" fill="url(#paint13_linear_4124_1461)"></path><path d="M62.7684 29.2983C62.197 28.8481 61.5861 28.4503 60.943 28.1097L60.6061 28.7291C61.2115 29.0493 61.7867 29.4234 62.3248 29.8468L62.7684 29.2983Z" fill="url(#paint14_linear_4124_1461)"></path><path d="M36.66 24.0372C37.3715 24.0632 38.0753 24.0957 38.7713 24.1348L38.8108 23.4313C38.1105 23.392 37.4022 23.3593 36.6859 23.333L36.66 24.0372Z" fill="url(#paint15_linear_4124_1461)"></path><path d="M59.6517 27.4754C59.0358 27.1995 58.371 26.9346 57.6574 26.6807L57.4198 27.3444C58.1168 27.5925 58.7643 27.8505 59.3622 28.1182L59.6517 27.4754Z" fill="url(#paint16_linear_4124_1461)"></path><path d="M38.636 10.8402L39.3193 10.6608C39.1308 9.94693 38.9332 9.26419 38.7266 8.61253L38.053 8.82508C38.2557 9.4641 38.45 10.1358 38.636 10.8402Z" fill="url(#paint17_linear_4124_1461)"></path><path d="M39.4192 14.2544L40.1123 14.1176C39.9704 13.4024 39.8205 12.7093 39.6626 12.0383L38.9748 12.1992C39.1305 12.8613 39.2786 13.5463 39.4192 14.2544Z" fill="url(#paint18_linear_4124_1461)"></path><path d="M40.0156 17.7109L40.7145 17.6077C40.6082 16.8922 40.4946 16.1931 40.3736 15.5105L39.6779 15.6331C39.7976 16.3086 39.9101 17.0013 40.0156 17.7109Z" fill="url(#paint19_linear_4124_1461)"></path><path d="M36.1985 4.33516L36.8167 3.99398C36.4697 3.35454 36.0632 2.74909 35.6024 2.18564L35.0598 2.63692C35.4919 3.16616 35.8731 3.73474 36.1985 4.33516Z" fill="url(#paint20_linear_4124_1461)"></path><path d="M35.1403 62.2252L35.6902 62.6676C36.1416 62.0978 36.5405 61.4885 36.8821 60.8471L36.261 60.5111C35.9399 61.1149 35.5648 61.6886 35.1403 62.2252Z" fill="url(#paint21_linear_4124_1461)"></path><path d="M38.2692 7.26347C38.0116 6.55307 37.7426 5.89121 37.4622 5.27789L36.8195 5.57051C37.0906 6.1629 37.3524 6.80711 37.6048 7.50315L38.2692 7.26347Z" fill="url(#paint22_linear_4124_1461)"></path><path d="M40.4591 21.1931L41.1616 21.1182C41.0849 20.4028 41.0012 19.7 40.9105 19.0099L40.21 19.1013C40.2998 19.7855 40.3829 20.4828 40.4591 21.1931Z" fill="url(#paint23_linear_4124_1461)"></path><path d="M40.5985 22.5909C40.6278 22.9079 40.6507 23.2346 40.6772 23.5559C40.5257 23.5448 40.3787 23.5305 40.2263 23.5199L40.1773 24.2229C40.3659 24.236 40.548 24.2534 40.7353 24.2675C40.7461 24.4099 40.7597 24.548 40.77 24.6913L41.4747 24.6414C41.4671 24.5342 41.4568 24.4311 41.4488 24.3244C41.7263 24.3472 42.0093 24.3662 42.2836 24.391L42.3474 23.6893C42.0331 23.6608 41.7092 23.6386 41.3907 23.6129C41.3612 23.2505 41.335 22.8832 41.3021 22.5262L40.5985 22.5909Z" fill="url(#paint24_linear_4124_1461)"></path><path d="M40.86 26.0934C40.8999 26.7872 40.9334 27.489 40.9604 28.1989L41.6665 28.1722C41.6394 27.458 41.6057 26.7516 41.5654 26.053L40.86 26.0934Z" fill="url(#paint25_linear_4124_1461)"></path><path d="M40.8675 38.7345L41.5729 38.774C41.6123 38.0755 41.6451 37.3691 41.6714 36.6547L40.9654 36.6289C40.9393 37.3385 40.9067 38.0403 40.8675 38.7345Z" fill="url(#paint26_linear_4124_1461)"></path><path d="M41.0081 35.2243L41.7144 35.2412C41.7313 34.5405 41.7418 33.8335 41.7458 33.1204L41.0393 33.1165C41.0354 33.8251 41.025 34.5277 41.0081 35.2243Z" fill="url(#paint27_linear_4124_1461)"></path><path d="M38.0926 56.0094L38.7669 56.2196C38.9712 55.5678 39.1666 54.8845 39.3532 54.1698L38.6695 53.9923C38.4857 54.696 38.2934 55.3684 38.0926 56.0094Z" fill="url(#paint28_linear_4124_1461)"></path><path d="M41.745 31.7067C41.7402 30.9937 41.7289 30.2867 41.7112 29.5858L41.0049 29.6035C41.0225 30.2999 41.0337 31.0025 41.0385 31.7114L41.745 31.7067Z" fill="url(#paint29_linear_4124_1461)"></path><path d="M39.7008 49.1968L40.3968 49.3181C40.5163 48.6355 40.6288 47.9363 40.734 47.2204L40.0349 47.1182C39.9307 47.8275 39.8194 48.5204 39.7008 49.1968Z" fill="url(#paint30_linear_4124_1461)"></path><path d="M40.2271 45.7275L40.9278 45.8179C41.0173 45.1279 41.1 44.425 41.1757 43.7093L40.4731 43.6353C40.398 44.3453 40.316 45.0427 40.2271 45.7275Z" fill="url(#paint31_linear_4124_1461)"></path><path d="M39.0048 52.6323L39.6931 52.7916C39.8492 52.1205 39.9976 51.4271 40.1381 50.7114L39.4448 50.576C39.3059 51.2836 39.1592 51.969 39.0048 52.6323Z" fill="url(#paint32_linear_4124_1461)"></path><path d="M36.8735 59.2705L37.5179 59.5592C37.7946 58.945 38.0602 58.282 38.3147 57.5702L37.6493 57.3333C37.4006 58.0284 37.142 58.6742 36.8735 59.2705Z" fill="url(#paint33_linear_4124_1461)"></path><defs><linearGradient id="paint0_linear_4124_1461" x1="-4.53495e-07" y1="64.8847" x2="51.5687" y2="82.8236" gradientUnits="userSpaceOnUse"><stop stop-color="#9D48FF"></stop><stop offset="0.488595" stop-color="#007BFF"></stop><stop offset="1" stop-color="#05EAFF"></stop></linearGradient><linearGradient id="paint1_linear_4124_1461" x1="-4.53495e-07" y1="64.8847" x2="51.5687" y2="82.8236" gradientUnits="userSpaceOnUse"><stop stop-color="#9D48FF"></stop><stop offset="0.488595" stop-color="#007BFF"></stop><stop offset="1" stop-color="#05EAFF"></stop></linearGradient><linearGradient id="paint2_linear_4124_1461" x1="-4.53495e-07" y1="64.8847" x2="51.5687" y2="82.8236" gradientUnits="userSpaceOnUse"><stop stop-color="#9D48FF"></stop><stop offset="0.488595" stop-color="#007BFF"></stop><stop offset="1" stop-color="#05EAFF"></stop></linearGradient><linearGradient id="paint3_linear_4124_1461" x1="-4.53495e-07" y1="64.8847" x2="51.5687" y2="82.8236" gradientUnits="userSpaceOnUse"><stop stop-color="#9D48FF"></stop><stop offset="0.488595" stop-color="#007BFF"></stop><stop offset="1" stop-color="#05EAFF"></stop></linearGradient><linearGradient id="paint4_linear_4124_1461" x1="-4.53495e-07" y1="64.8847" x2="51.5687" y2="82.8236" gradientUnits="userSpaceOnUse"><stop stop-color="#9D48FF"></stop><stop offset="0.488595" stop-color="#007BFF"></stop><stop offset="1" stop-color="#05EAFF"></stop></linearGradient><linearGradient id="paint5_linear_4124_1461" x1="-4.53495e-07" y1="64.8847" x2="51.5687" y2="82.8236" gradientUnits="userSpaceOnUse"><stop stop-color="#9D48FF"></stop><stop offset="0.488595" stop-color="#007BFF"></stop><stop offset="1" stop-color="#05EAFF"></stop></linearGradient><linearGradient id="paint6_linear_4124_1461" x1="-4.53495e-07" y1="64.8847" x2="51.5687" y2="82.8236" gradientUnits="userSpaceOnUse"><stop stop-color="#9D48FF"></stop><stop offset="0.488595" stop-color="#007BFF"></stop><stop offset="1" stop-color="#05EAFF"></stop></linearGradient><linearGradient id="paint7_linear_4124_1461" x1="-4.53495e-07" y1="64.8847" x2="51.5687" y2="82.8236" gradientUnits="userSpaceOnUse"><stop stop-color="#9D48FF"></stop><stop offset="0.488595" stop-color="#007BFF"></stop><stop offset="1" stop-color="#05EAFF"></stop></linearGradient><linearGradient id="paint8_linear_4124_1461" x1="-4.53495e-07" y1="64.8847" x2="51.5687" y2="82.8236" gradientUnits="userSpaceOnUse"><stop stop-color="#9D48FF"></stop><stop offset="0.488595" stop-color="#007BFF"></stop><stop offset="1" stop-color="#05EAFF"></stop></linearGradient><linearGradient id="paint9_linear_4124_1461" x1="-4.53495e-07" y1="64.8847" x2="51.5687" y2="82.8236" gradientUnits="userSpaceOnUse"><stop stop-color="#9D48FF"></stop><stop offset="0.488595" stop-color="#007BFF"></stop><stop offset="1" stop-color="#05EAFF"></stop></linearGradient><linearGradient id="paint10_linear_4124_1461" x1="-4.53495e-07" y1="64.8847" x2="51.5687" y2="82.8236" gradientUnits="userSpaceOnUse"><stop stop-color="#9D48FF"></stop><stop offset="0.488595" stop-color="#007BFF"></stop><stop offset="1" stop-color="#05EAFF"></stop></linearGradient><linearGradient id="paint11_linear_4124_1461" x1="-4.53495e-07" y1="64.8847" x2="51.5687" y2="82.8236" gradientUnits="userSpaceOnUse"><stop stop-color="#9D48FF"></stop><stop offset="0.488595" stop-color="#007BFF"></stop><stop offset="1" stop-color="#05EAFF"></stop></linearGradient><linearGradient id="paint12_linear_4124_1461" x1="-4.53495e-07" y1="64.8847" x2="51.5687" y2="82.8236" gradientUnits="userSpaceOnUse"><stop stop-color="#9D48FF"></stop><stop offset="0.488595" stop-color="#007BFF"></stop><stop offset="1" stop-color="#05EAFF"></stop></linearGradient><linearGradient id="paint13_linear_4124_1461" x1="-4.53495e-07" y1="64.8847" x2="51.5687" y2="82.8236" gradientUnits="userSpaceOnUse"><stop stop-color="#9D48FF"></stop><stop offset="0.488595" stop-color="#007BFF"></stop><stop offset="1" stop-color="#05EAFF"></stop></linearGradient><linearGradient id="paint14_linear_4124_1461" x1="-4.53495e-07" y1="64.8847" x2="51.5687" y2="82.8236" gradientUnits="userSpaceOnUse"><stop stop-color="#9D48FF"></stop><stop offset="0.488595" stop-color="#007BFF"></stop><stop offset="1" stop-color="#05EAFF"></stop></linearGradient><linearGradient id="paint15_linear_4124_1461" x1="-4.53495e-07" y1="64.8847" x2="51.5687" y2="82.8236" gradientUnits="userSpaceOnUse"><stop stop-color="#9D48FF"></stop><stop offset="0.488595" stop-color="#007BFF"></stop><stop offset="1" stop-color="#05EAFF"></stop></linearGradient><linearGradient id="paint16_linear_4124_1461" x1="-4.53495e-07" y1="64.8847" x2="51.5687" y2="82.8236" gradientUnits="userSpaceOnUse"><stop stop-color="#9D48FF"></stop><stop offset="0.488595" stop-color="#007BFF"></stop><stop offset="1" stop-color="#05EAFF"></stop></linearGradient><linearGradient id="paint17_linear_4124_1461" x1="-4.53495e-07" y1="64.8847" x2="51.5687" y2="82.8236" gradientUnits="userSpaceOnUse"><stop stop-color="#9D48FF"></stop><stop offset="0.488595" stop-color="#007BFF"></stop><stop offset="1" stop-color="#05EAFF"></stop></linearGradient><linearGradient id="paint18_linear_4124_1461" x1="-4.53495e-07" y1="64.8847" x2="51.5687" y2="82.8236" gradientUnits="userSpaceOnUse"><stop stop-color="#9D48FF"></stop><stop offset="0.488595" stop-color="#007BFF"></stop><stop offset="1" stop-color="#05EAFF"></stop></linearGradient><linearGradient id="paint19_linear_4124_1461" x1="-4.53495e-07" y1="64.8847" x2="51.5687" y2="82.8236" gradientUnits="userSpaceOnUse"><stop stop-color="#9D48FF"></stop><stop offset="0.488595" stop-color="#007BFF"></stop><stop offset="1" stop-color="#05EAFF"></stop></linearGradient><linearGradient id="paint20_linear_4124_1461" x1="-4.53495e-07" y1="64.8847" x2="51.5687" y2="82.8236" gradientUnits="userSpaceOnUse"><stop stop-color="#9D48FF"></stop><stop offset="0.488595" stop-color="#007BFF"></stop><stop offset="1" stop-color="#05EAFF"></stop></linearGradient><linearGradient id="paint21_linear_4124_1461" x1="-4.53495e-07" y1="64.8847" x2="51.5687" y2="82.8236" gradientUnits="userSpaceOnUse"><stop stop-color="#9D48FF"></stop><stop offset="0.488595" stop-color="#007BFF"></stop><stop offset="1" stop-color="#05EAFF"></stop></linearGradient><linearGradient id="paint22_linear_4124_1461" x1="-4.53495e-07" y1="64.8847" x2="51.5687" y2="82.8236" gradientUnits="userSpaceOnUse"><stop stop-color="#9D48FF"></stop><stop offset="0.488595" stop-color="#007BFF"></stop><stop offset="1" stop-color="#05EAFF"></stop></linearGradient><linearGradient id="paint23_linear_4124_1461" x1="-4.53495e-07" y1="64.8847" x2="51.5687" y2="82.8236" gradientUnits="userSpaceOnUse"><stop stop-color="#9D48FF"></stop><stop offset="0.488595" stop-color="#007BFF"></stop><stop offset="1" stop-color="#05EAFF"></stop></linearGradient><linearGradient id="paint24_linear_4124_1461" x1="-4.53495e-07" y1="64.8847" x2="51.5687" y2="82.8236" gradientUnits="userSpaceOnUse"><stop stop-color="#9D48FF"></stop><stop offset="0.488595" stop-color="#007BFF"></stop><stop offset="1" stop-color="#05EAFF"></stop></linearGradient><linearGradient id="paint25_linear_4124_1461" x1="-4.53495e-07" y1="64.8847" x2="51.5687" y2="82.8236" gradientUnits="userSpaceOnUse"><stop stop-color="#9D48FF"></stop><stop offset="0.488595" stop-color="#007BFF"></stop><stop offset="1" stop-color="#05EAFF"></stop></linearGradient><linearGradient id="paint26_linear_4124_1461" x1="-4.53495e-07" y1="64.8847" x2="51.5687" y2="82.8236" gradientUnits="userSpaceOnUse"><stop stop-color="#9D48FF"></stop><stop offset="0.488595" stop-color="#007BFF"></stop><stop offset="1" stop-color="#05EAFF"></stop></linearGradient><linearGradient id="paint27_linear_4124_1461" x1="-4.53495e-07" y1="64.8847" x2="51.5687" y2="82.8236" gradientUnits="userSpaceOnUse"><stop stop-color="#9D48FF"></stop><stop offset="0.488595" stop-color="#007BFF"></stop><stop offset="1" stop-color="#05EAFF"></stop></linearGradient><linearGradient id="paint28_linear_4124_1461" x1="-4.53495e-07" y1="64.8847" x2="51.5687" y2="82.8236" gradientUnits="userSpaceOnUse"><stop stop-color="#9D48FF"></stop><stop offset="0.488595" stop-color="#007BFF"></stop><stop offset="1" stop-color="#05EAFF"></stop></linearGradient><linearGradient id="paint29_linear_4124_1461" x1="-4.53495e-07" y1="64.8847" x2="51.5687" y2="82.8236" gradientUnits="userSpaceOnUse"><stop stop-color="#9D48FF"></stop><stop offset="0.488595" stop-color="#007BFF"></stop><stop offset="1" stop-color="#05EAFF"></stop></linearGradient><linearGradient id="paint30_linear_4124_1461" x1="-4.53495e-07" y1="64.8847" x2="51.5687" y2="82.8236" gradientUnits="userSpaceOnUse"><stop stop-color="#9D48FF"></stop><stop offset="0.488595" stop-color="#007BFF"></stop><stop offset="1" stop-color="#05EAFF"></stop></linearGradient><linearGradient id="paint31_linear_4124_1461" x1="-4.53495e-07" y1="64.8847" x2="51.5687" y2="82.8236" gradientUnits="userSpaceOnUse"><stop stop-color="#9D48FF"></stop><stop offset="0.488595" stop-color="#007BFF"></stop><stop offset="1" stop-color="#05EAFF"></stop></linearGradient><linearGradient id="paint32_linear_4124_1461" x1="-4.53495e-07" y1="64.8847" x2="51.5687" y2="82.8236" gradientUnits="userSpaceOnUse"><stop stop-color="#9D48FF"></stop><stop offset="0.488595" stop-color="#007BFF"></stop><stop offset="1" stop-color="#05EAFF"></stop></linearGradient><linearGradient id="paint33_linear_4124_1461" x1="-4.53495e-07" y1="64.8847" x2="51.5687" y2="82.8236" gradientUnits="userSpaceOnUse"><stop stop-color="#9D48FF"></stop><stop offset="0.488595" stop-color="#007BFF"></stop><stop offset="1" stop-color="#05EAFF"></stop></linearGradient></defs></svg>